<svg width="36" height="37" viewBox="0 0 36 37" fill="none" xmlns="http://www.w3.org/2000/svg">
<path fill-rule="evenodd" clip-rule="evenodd" d="M15.1203 6.07178H20.8803C21.4326 6.07178 21.8803 6.51949 21.8803 7.07178V8.29178C21.8803 8.87167 22.2193 9.41578 22.7789 9.73462L23.0044 9.85618C23.5291 10.1034 24.0968 10.0971 24.5514 9.83613L25.6214 9.22013C26.099 8.94513 26.7092 9.1085 26.9855 9.5854L29.8655 14.5554C30.143 15.0343 29.9787 15.6476 29.4989 15.9236L28.442 16.5316C27.9393 16.8207 27.6379 17.3881 27.6393 18.0558L27.6452 18.2541C27.6896 18.8481 27.9812 19.3469 28.4419 19.612L29.4989 20.22C29.9787 20.4959 30.143 21.1092 29.8655 21.5882L26.9855 26.5582C26.7092 27.0351 26.099 27.1984 25.6214 26.9234L24.5524 26.308C24.0514 26.0204 23.4144 26.0414 22.8329 26.3779L22.6508 26.4892C22.1651 26.8187 21.8803 27.3202 21.8803 27.8518V29.0718C21.8803 29.6241 21.4326 30.0718 20.8803 30.0718H15.1203C14.568 30.0718 14.1203 29.6241 14.1203 29.0718V27.8518C14.1203 27.2719 13.7813 26.7278 13.2216 26.4089L12.9962 26.2874C12.4715 26.0402 11.9031 26.0465 11.4492 26.3074L10.3792 26.9234C9.90154 27.1984 9.29141 27.0351 9.01506 26.5582L6.13506 21.5882C5.85753 21.1092 6.02186 20.4959 6.50168 20.22L7.55863 19.612C8.06124 19.3228 8.36265 18.7555 8.36129 18.0878L8.35538 17.8895C8.31102 17.2955 8.01936 16.7966 7.55868 16.5316L6.50168 15.9236C6.02186 15.6476 5.85753 15.0343 6.13506 14.5554L9.01506 9.5854C9.29141 9.1085 9.90154 8.94513 10.3792 9.22013L11.4486 9.8358C11.9485 10.1231 12.5863 10.1021 13.1676 9.76562L13.2124 9.73984C13.7813 9.41578 14.1203 8.87167 14.1203 8.29178V7.07178C14.1203 6.51949 14.568 6.07178 15.1203 6.07178ZM19.8801 8.07178H16.1201L16.1203 8.29178C16.1203 9.54146 15.4569 10.6758 14.3861 11.3658L14.1929 11.4829L13.9466 11.6176C12.8266 12.1824 11.5256 12.1869 10.4514 11.5694L10.2451 11.4508L8.36809 14.6898L8.55595 14.798C9.64084 15.4221 10.2893 16.5639 10.3557 17.831L10.3613 18.0558L10.3556 18.3109C10.2893 19.5796 9.64084 20.7214 8.5559 21.3456L8.36809 21.4528L10.2451 24.6918L10.4519 24.5738C11.5257 23.9566 12.8266 23.9612 13.9337 24.5186L14.1389 24.6296L14.3939 24.7821C15.4569 25.4677 16.1203 26.6021 16.1203 27.8518L16.1201 28.0718H19.8801L19.8803 27.8518C19.8803 26.6021 20.5437 25.4677 21.6145 24.7777L21.8076 24.6606L22.0539 24.526C23.1738 23.9612 24.4738 23.9567 25.5492 24.5741L25.7541 24.6918L27.6311 21.4528L27.4446 21.3456C26.3597 20.7214 25.7113 19.5796 25.6449 18.3126L25.6393 18.0878L25.6449 17.8327C25.7113 16.5639 26.3597 15.4221 27.4447 14.798L27.6311 14.6898L25.7541 11.4508L25.5482 11.57C24.4737 12.1869 23.1738 12.1823 22.0668 11.6249L21.8616 11.5139L21.6067 11.3614C20.5437 10.6758 19.8803 9.54146 19.8803 8.29178L19.8801 8.07178ZM18.0001 13.0718C15.2388 13.0718 13.0001 15.3105 13.0001 18.0718C13.0001 20.8331 15.2388 23.0718 18.0001 23.0718C20.7614 23.0718 23.0001 20.8331 23.0001 18.0718C23.0001 15.3105 20.7614 13.0718 18.0001 13.0718ZM21.0001 18.0718C21.0001 16.4151 19.6568 15.0718 18.0001 15.0718C16.3434 15.0718 15.0001 16.4151 15.0001 18.0718C15.0001 19.7285 16.3434 21.0718 18.0001 21.0718C19.6568 21.0718 21.0001 19.7285 21.0001 18.0718Z" fill="white"/>
</svg>
