<svg width="26" height="26" viewBox="0 0 26 26" fill="none" xmlns="http://www.w3.org/2000/svg">
<path fill-rule="evenodd" clip-rule="evenodd" d="M25.8513 9.85336C25.5614 10.3234 24.9453 10.4695 24.4753 10.1796L13.0001 3.10332L1.52503 10.1796C1.05494 10.4695 0.438857 10.3234 0.148969 9.85336C-0.140919 9.38327 0.00516218 8.76718 0.475251 8.4773L12.4753 1.0773C12.797 0.878857 13.2032 0.878857 13.525 1.0773L21.0001 5.68695V2.92857C21.0001 2.37628 21.4479 1.92857 22.0001 1.92857C22.5524 1.92857 23.0001 2.37628 23.0001 2.92857V6.92028L25.525 8.4773C25.9951 8.76718 26.1412 9.38327 25.8513 9.85336ZM21.0001 22.9286V11.9286C21.0001 11.3763 21.4479 10.9286 22.0001 10.9286C22.5524 10.9286 23.0001 11.3763 23.0001 11.9286V22.9286C23.0001 24.5849 21.6564 25.9286 20.0001 25.9286H6.00014C4.34385 25.9286 3.00014 24.5849 3.00014 22.9286V11.9286C3.00014 11.3763 3.44785 10.9286 4.00014 10.9286C4.55242 10.9286 5.00014 11.3763 5.00014 11.9286V22.9286C5.00014 23.4803 5.44842 23.9286 6.00014 23.9286H20.0001C20.5519 23.9286 21.0001 23.4803 21.0001 22.9286ZM17.0001 13.9286C17.0001 12.824 16.1047 11.9286 15.0001 11.9286H11.0001C9.89557 11.9286 9.00014 12.824 9.00014 13.9286V17.9286C9.00014 19.0331 9.89557 19.9286 11.0001 19.9286H15.0001C16.1047 19.9286 17.0001 19.0331 17.0001 17.9286V13.9286ZM11.0001 13.9286V17.9286H15.0001V13.9286H11.0001Z" fill="white"/>
</svg>
