<svg width="26" height="28" viewBox="0 0 26 28" fill="none" xmlns="http://www.w3.org/2000/svg">
<path fill-rule="evenodd" clip-rule="evenodd" d="M25.0001 19.0718C25.513 19.0718 25.9356 19.4578 25.9934 19.9552L26.0001 20.0718V25.0718C26.0001 26.1261 25.1842 26.99 24.1494 27.0663L24.0001 27.0718H2.00012C0.94576 27.0718 0.0819569 26.2559 0.00560781 25.221L0.00012207 25.0718V20.0718C0.00012207 19.5195 0.447837 19.0718 1.00012 19.0718C1.51296 19.0718 1.93563 19.4578 1.99339 19.9552L2.00012 20.0718V25.0718H24.0001V20.0718C24.0001 19.5195 24.4478 19.0718 25.0001 19.0718ZM13.0363 0.928711C13.5491 0.928711 13.9718 1.31475 14.0296 1.81209L14.0363 1.92871L14.0361 16.9037L17.9861 12.9552C18.3487 12.5925 18.9205 12.5666 19.3131 12.8775L19.4003 12.9552C19.7629 13.3178 19.7888 13.8896 19.478 14.2822L19.4003 14.3694L13.7434 20.0262C13.3808 20.3889 12.8089 20.4148 12.4164 20.1039L12.3292 20.0262L6.67235 14.3694C6.28183 13.9789 6.28183 13.3457 6.67235 12.9552C7.03498 12.5925 7.60683 12.5666 7.99934 12.8775L8.08657 12.9552L12.0361 16.9037L12.0363 1.92871C12.0363 1.37643 12.484 0.928711 13.0363 0.928711Z" fill="white"/>
</svg>
