<svg width="36" height="37" viewBox="0 0 36 37" fill="none" xmlns="http://www.w3.org/2000/svg">
<g clip-path="url(#clip0_464_52)">
<path fill-rule="evenodd" clip-rule="evenodd" d="M25.7347 18.0076L25.8629 18.3833L25.9408 18.5959L28.3793 21.9881C29.8387 24.1421 28.5816 27.0718 26.0573 27.0718H9.95431C7.43078 27.0718 6.17304 24.1419 7.61636 22.011L10.1112 18.4887C10.371 17.7888 10.4643 17.4311 10.4643 17.0718V13.0718C10.4643 9.51526 13.2456 7.07178 16.9993 7.07178H19.0123C22.7662 7.07178 25.5483 9.51537 25.5483 13.0718V17.0718C25.5483 17.3183 25.6058 17.6047 25.7347 18.0076ZM23.5483 13.0718C23.5483 10.6818 21.7152 9.07178 19.0123 9.07178H16.9993C14.2967 9.07178 12.4643 10.6816 12.4643 13.0718V17.0718C12.4643 17.655 12.3611 18.127 12.1082 18.848L11.8927 19.4338L9.26031 23.1498C8.67896 24.0085 9.13539 25.0718 9.95431 25.0718H26.0573C26.8768 25.0718 27.3329 24.0089 26.7394 23.1326L24.1626 19.5487L24.0219 19.1736C23.6934 18.2796 23.5483 17.7126 23.5483 17.0718V13.0718ZM14.0001 17.0718V14.0718C14.0001 12.2908 15.2245 11.0718 17.0001 11.0718H18.0001C18.5524 11.0718 19.0001 11.5195 19.0001 12.0718C19.0001 12.6241 18.5524 13.0718 18.0001 13.0718H17.0001C16.3271 13.0718 16.0001 13.3973 16.0001 14.0718V17.0718C16.0001 17.6241 15.5524 18.0718 15.0001 18.0718C14.4478 18.0718 14.0001 17.6241 14.0001 17.0718ZM15.0001 30.0718C15.0001 30.6241 15.4478 31.0718 16.0001 31.0718H20.0001C20.5524 31.0718 21.0001 30.6241 21.0001 30.0718C21.0001 29.5195 20.5524 29.0718 20.0001 29.0718H16.0001C15.4478 29.0718 15.0001 29.5195 15.0001 30.0718Z" fill="white"/>
</g>
<defs>
<clipPath id="clip0_464_52">
<rect width="36" height="36" fill="white" transform="translate(0.00012207 0.0717773)"/>
</clipPath>
</defs>
</svg>
